<?xml version="1.0" standalone="no"?>
<!DOCTYPE svg PUBLIC "-//W3C//DTD SVG 20010904//EN"
 "http://www.w3.org/TR/2001/REC-SVG-20010904/DTD/svg10.dtd">
<svg version="1.0" xmlns="http://www.w3.org/2000/svg"
 width="300.000000pt" height="300.000000pt" viewBox="0 0 300.000000 300.000000"
 preserveAspectRatio="xMidYMid meet">

<g transform="translate(0.000000,300.000000) scale(0.100000,-0.100000)"
fill="#000000" stroke="none">
<path d="M1100 1799 c0 -218 -4 -339 -10 -337 -5 2 -210 153 -454 336 -245
182 -450 332 -455 332 -8 0 -10 -102 -9 -342 l3 -343 455 -342 c250 -188 458
-342 463 -342 4 -1 7 152 7 339 0 187 2 340 5 340 3 0 209 -153 458 -340 250
-187 457 -340 460 -340 4 0 7 154 7 343 l0 343 443 331 c243 183 451 339 462
347 18 14 -28 15 -442 16 l-463 0 0 -340 c0 -187 -3 -340 -7 -340 -5 0 -213
153 -462 340 -250 187 -456 340 -458 340 -2 0 -3 -153 -3 -341z"/>
</g>
</svg>
